<svg width="103" height="15" viewBox="0 0 103 15" fill="none" xmlns="http://www.w3.org/2000/svg">
<path d="M12.2229 5.80419H9.52586C9.4766 5.45525 9.37603 5.14532 9.22414 4.87438C9.07225 4.59934 8.87726 4.36535 8.63916 4.17241C8.40107 3.97947 8.12603 3.83169 7.81404 3.72906C7.50616 3.62644 7.17159 3.57512 6.81034 3.57512C6.15764 3.57512 5.58908 3.73727 5.10468 4.06158C4.62028 4.38177 4.24466 4.84975 3.97783 5.46552C3.711 6.07718 3.57759 6.8202 3.57759 7.69458C3.57759 8.5936 3.711 9.34893 3.97783 9.96059C4.24877 10.5722 4.62644 11.0341 5.11084 11.3461C5.59524 11.658 6.15558 11.814 6.79187 11.814C7.14901 11.814 7.47947 11.7668 7.78325 11.6724C8.09113 11.578 8.36412 11.4405 8.60222 11.2599C8.84031 11.0751 9.03736 10.8514 9.19335 10.5887C9.35345 10.3259 9.46429 10.0263 9.52586 9.68966L12.2229 9.70197C12.1531 10.2808 11.9787 10.8391 11.6995 11.3768C11.4245 11.9105 11.053 12.3888 10.585 12.8116C10.1211 13.2303 9.56691 13.5628 8.92241 13.8091C8.28202 14.0513 7.55747 14.1724 6.74877 14.1724C5.62397 14.1724 4.61823 13.9179 3.73153 13.4089C2.84893 12.8998 2.15107 12.163 1.63793 11.1983C1.1289 10.2336 0.874384 9.06568 0.874384 7.69458C0.874384 6.31938 1.133 5.14943 1.65025 4.18473C2.16749 3.22003 2.86946 2.48522 3.75616 1.9803C4.64286 1.47126 5.64039 1.21675 6.74877 1.21675C7.47947 1.21675 8.15681 1.31938 8.78079 1.52463C9.40887 1.72989 9.96511 2.02956 10.4495 2.42364C10.9339 2.81363 11.328 3.29187 11.6318 3.85837C11.9397 4.42488 12.1367 5.07348 12.2229 5.80419ZM18.359 14.1847C17.4025 14.1847 16.5753 13.9815 15.8775 13.5751C15.1837 13.1646 14.648 12.594 14.2703 11.8633C13.8927 11.1285 13.7038 10.2767 13.7038 9.30788C13.7038 8.33087 13.8927 7.47701 14.2703 6.74631C14.648 6.01149 15.1837 5.44089 15.8775 5.03448C16.5753 4.62397 17.4025 4.41872 18.359 4.41872C19.3155 4.41872 20.1406 4.62397 20.8344 5.03448C21.5322 5.44089 22.07 6.01149 22.4477 6.74631C22.8253 7.47701 23.0142 8.33087 23.0142 9.30788C23.0142 10.2767 22.8253 11.1285 22.4477 11.8633C22.07 12.594 21.5322 13.1646 20.8344 13.5751C20.1406 13.9815 19.3155 14.1847 18.359 14.1847ZM18.3713 12.1527C18.8064 12.1527 19.1697 12.0296 19.4612 11.7833C19.7527 11.5328 19.9723 11.1921 20.1201 10.7611C20.272 10.33 20.3479 9.83949 20.3479 9.28941C20.3479 8.73933 20.272 8.24877 20.1201 7.81773C19.9723 7.3867 19.7527 7.04598 19.4612 6.79557C19.1697 6.54516 18.8064 6.41995 18.3713 6.41995C17.9321 6.41995 17.5626 6.54516 17.2629 6.79557C16.9674 7.04598 16.7436 7.3867 16.5917 7.81773C16.444 8.24877 16.3701 8.73933 16.3701 9.28941C16.3701 9.83949 16.444 10.33 16.5917 10.7611C16.7436 11.1921 16.9674 11.5328 17.2629 11.7833C17.5626 12.0296 17.9321 12.1527 18.3713 12.1527ZM24.7198 14V4.54187H27.343V14H24.7198ZM26.0376 3.32266C25.6476 3.32266 25.313 3.19335 25.0339 2.93473C24.7588 2.672 24.6213 2.35796 24.6213 1.99261C24.6213 1.63136 24.7588 1.32143 25.0339 1.06281C25.313 0.800082 25.6476 0.668719 26.0376 0.668719C26.4275 0.668719 26.7601 0.800082 27.0351 1.06281C27.3142 1.32143 27.4538 1.63136 27.4538 1.99261C27.4538 2.35796 27.3142 2.672 27.0351 2.93473C26.7601 3.19335 26.4275 3.32266 26.0376 3.32266ZM32.0674 8.53202V14H29.4443V4.54187H31.9443V6.21059H32.0551C32.2645 5.66051 32.6155 5.22537 33.1081 4.90517C33.6007 4.58087 34.198 4.41872 34.8999 4.41872C35.5568 4.41872 36.1294 4.5624 36.6179 4.84975C37.1064 5.13711 37.4861 5.54762 37.7571 6.08128C38.028 6.61084 38.1635 7.24302 38.1635 7.97783V14H35.5403V8.44581C35.5444 7.867 35.3967 7.41544 35.097 7.09113C34.7973 6.76273 34.3847 6.59852 33.8593 6.59852C33.5063 6.59852 33.1943 6.67447 32.9233 6.82635C32.6565 6.97824 32.4471 7.19992 32.2953 7.49138C32.1475 7.77874 32.0715 8.12562 32.0674 8.53202ZM40.2802 14V1.38916H45.3294C46.2572 1.38916 47.031 1.52668 47.6509 1.80172C48.2707 2.07677 48.7367 2.45854 49.0486 2.94704C49.3606 3.43145 49.5166 3.98974 49.5166 4.62192C49.5166 5.11453 49.4181 5.54762 49.2211 5.92118C49.024 6.29064 48.7531 6.59442 48.4083 6.83251C48.0675 7.0665 47.6775 7.23276 47.2383 7.33128V7.45443C47.7186 7.47496 48.1681 7.61043 48.5868 7.86084C49.0096 8.11125 49.3524 8.46223 49.6151 8.91379C49.8779 9.36125 50.0092 9.89491 50.0092 10.5148C50.0092 11.1839 49.843 11.7812 49.5105 12.3067C49.1821 12.828 48.6956 13.2406 48.0511 13.5443C47.4066 13.8481 46.6123 14 45.6681 14H40.2802ZM42.9464 11.8202H45.1201C45.8631 11.8202 46.405 11.6786 46.7457 11.3953C47.0864 11.108 47.2568 10.7262 47.2568 10.25C47.2568 9.90107 47.1726 9.59319 47.0043 9.32635C46.836 9.05952 46.5959 8.85016 46.2839 8.69828C45.976 8.54639 45.6086 8.47044 45.1816 8.47044H42.9464V11.8202ZM42.9464 6.66626H44.923C45.2884 6.66626 45.6127 6.60263 45.8959 6.47537C46.1833 6.34401 46.4091 6.15928 46.5733 5.92118C46.7416 5.68309 46.8257 5.39778 46.8257 5.06527C46.8257 4.60961 46.6636 4.2422 46.3393 3.96305C46.0191 3.68391 45.5634 3.54433 44.9723 3.54433H42.9464V6.66626ZM55.9683 14.1847C55.0118 14.1847 54.1846 13.9815 53.4868 13.5751C52.793 13.1646 52.2573 12.594 51.8796 11.8633C51.5019 11.1285 51.3131 10.2767 51.3131 9.30788C51.3131 8.33087 51.5019 7.47701 51.8796 6.74631C52.2573 6.01149 52.793 5.44089 53.4868 5.03448C54.1846 4.62397 55.0118 4.41872 55.9683 4.41872C56.9248 4.41872 57.7499 4.62397 58.4437 5.03448C59.1415 5.44089 59.6793 6.01149 60.057 6.74631C60.4346 7.47701 60.6235 8.33087 60.6235 9.30788C60.6235 10.2767 60.4346 11.1285 60.057 11.8633C59.6793 12.594 59.1415 13.1646 58.4437 13.5751C57.7499 13.9815 56.9248 14.1847 55.9683 14.1847ZM55.9806 12.1527C56.4157 12.1527 56.779 12.0296 57.0705 11.7833C57.362 11.5328 57.5816 11.1921 57.7294 10.7611C57.8813 10.33 57.9572 9.83949 57.9572 9.28941C57.9572 8.73933 57.8813 8.24877 57.7294 7.81773C57.5816 7.3867 57.362 7.04598 57.0705 6.79557C56.779 6.54516 56.4157 6.41995 55.9806 6.41995C55.5414 6.41995 55.1719 6.54516 54.8722 6.79557C54.5767 7.04598 54.3529 7.3867 54.201 7.81773C54.0533 8.24877 53.9794 8.73933 53.9794 9.28941C53.9794 9.83949 54.0533 10.33 54.201 10.7611C54.3529 11.1921 54.5767 11.5328 54.8722 11.7833C55.1719 12.0296 55.5414 12.1527 55.9806 12.1527ZM68.3944 9.97291V4.54187H71.0175V14H68.4991V12.282H68.4006C68.1871 12.8362 67.832 13.2816 67.3353 13.6182C66.8427 13.9548 66.2413 14.1232 65.5311 14.1232C64.8989 14.1232 64.3427 13.9795 63.8624 13.6921C63.3821 13.4048 63.0065 12.9963 62.7355 12.4667C62.4687 11.9372 62.3332 11.303 62.3291 10.564V4.54187H64.9523V10.0961C64.9564 10.6544 65.1062 11.0956 65.4018 11.42C65.6974 11.7443 66.0935 11.9064 66.5902 11.9064C66.9063 11.9064 67.2019 11.8346 67.4769 11.6909C67.7519 11.5431 67.9736 11.3255 68.1419 11.0382C68.3143 10.7508 68.3985 10.3957 68.3944 9.97291ZM75.7389 8.53202V14H73.1158V4.54187H75.6158V6.21059H75.7266C75.936 5.66051 76.2869 5.22537 76.7796 4.90517C77.2722 4.58087 77.8695 4.41872 78.5714 4.41872C79.2282 4.41872 79.8009 4.5624 80.2894 4.84975C80.7779 5.13711 81.1576 5.54762 81.4286 6.08128C81.6995 6.61084 81.835 7.24302 81.835 7.97783V14H79.2118V8.44581C79.2159 7.867 79.0681 7.41544 78.7685 7.09113C78.4688 6.76273 78.0562 6.59852 77.5308 6.59852C77.1777 6.59852 76.8658 6.67447 76.5948 6.82635C76.328 6.97824 76.1186 7.19992 75.9667 7.49138C75.819 7.77874 75.743 8.12562 75.7389 8.53202ZM88.1758 14.1847C87.207 14.1847 86.3737 13.9795 85.6758 13.569C84.982 13.1544 84.4484 12.5796 84.0748 11.8448C83.7054 11.11 83.5206 10.2644 83.5206 9.30788C83.5206 8.33908 83.7074 7.48933 84.081 6.75862C84.4586 6.02381 84.9944 5.45115 85.6881 5.04064C86.3819 4.62603 87.207 4.41872 88.1635 4.41872C88.9886 4.41872 89.7111 4.56856 90.331 4.86823C90.9508 5.1679 91.4414 5.58867 91.8026 6.13054C92.1639 6.67241 92.363 7.3087 92.3999 8.03941H89.9246C89.8548 7.56732 89.67 7.1876 89.3704 6.90025C89.0748 6.60879 88.6869 6.46305 88.2066 6.46305C87.8002 6.46305 87.4451 6.57389 87.1413 6.79557C86.8416 7.01314 86.6077 7.33128 86.4393 7.75C86.271 8.16872 86.1869 8.6757 86.1869 9.27094C86.1869 9.87438 86.269 10.3875 86.4332 10.8103C86.6015 11.2332 86.8375 11.5554 87.1413 11.7771C87.4451 11.9988 87.8002 12.1096 88.2066 12.1096C88.5063 12.1096 88.7751 12.048 89.0132 11.9249C89.2554 11.8017 89.4545 11.6232 89.6105 11.3892C89.7706 11.1511 89.8753 10.8658 89.9246 10.5333H92.3999C92.3589 11.2557 92.1618 11.892 91.8088 12.4421C91.4599 12.9881 90.9775 13.415 90.3618 13.7229C89.746 14.0308 89.0173 14.1847 88.1758 14.1847ZM98.3898 14.1847C97.4169 14.1847 96.5794 13.9877 95.8775 13.5936C95.1796 13.1954 94.6418 12.633 94.2642 11.9064C93.8865 11.1757 93.6977 10.3116 93.6977 9.31404C93.6977 8.34113 93.8865 7.48727 94.2642 6.75246C94.6418 6.01765 95.1734 5.44499 95.859 5.03448C96.5486 4.62397 97.3573 4.41872 98.2851 4.41872C98.9091 4.41872 99.4899 4.51929 100.028 4.72044C100.57 4.91749 101.042 5.21511 101.444 5.6133C101.85 6.01149 102.166 6.51232 102.392 7.11576C102.618 7.71511 102.731 8.41708 102.731 9.22167V9.94212H94.7445V8.3165H100.262C100.262 7.93883 100.18 7.60427 100.015 7.31281C99.8512 7.02135 99.6234 6.79351 99.3319 6.62931C99.0445 6.461 98.71 6.37685 98.3282 6.37685C97.93 6.37685 97.577 6.46921 97.2691 6.65394C96.9653 6.83456 96.7272 7.07882 96.5548 7.3867C96.3824 7.69048 96.2941 8.02915 96.29 8.40271V9.94828C96.29 10.4163 96.3762 10.8206 96.5486 11.1613C96.7252 11.5021 96.9735 11.7648 97.2937 11.9495C97.6139 12.1342 97.9936 12.2266 98.4329 12.2266C98.7243 12.2266 98.9912 12.1856 99.2334 12.1034C99.4756 12.0213 99.6829 11.8982 99.8553 11.734C100.028 11.5698 100.159 11.3686 100.249 11.1305L102.675 11.2906C102.552 11.8736 102.3 12.3826 101.918 12.8177C101.54 13.2488 101.052 13.5854 100.453 13.8276C99.8573 14.0657 99.1697 14.1847 98.3898 14.1847Z" fill="white"/>
</svg>
